
<svg
  xmlns="http://www.w3.org/2000/svg"
  width="151"
  height="167"
  fill="none"
>
  <g clip-path="url(#a)" opacity=".13">
    <path
      fill="#2A3E51"
      d="M125.14 8.17H25.36c-9.494 0-17.19 7.696-17.19 17.19v115.77c0 9.494 7.696 17.19 17.19 17.19h99.78c9.494 0 17.19-7.696 17.19-17.19V25.36c0-9.494-7.696-17.19-17.19-17.19Z"
    />
    <path
      fill="#fff"
      d="M116.2 21.63H34.3c-7.793 0-14.11 6.317-14.11 14.11v95.01c0 7.793 6.317 14.11 14.11 14.11h81.9c7.793 0 14.11-6.317 14.11-14.11V35.74c0-7.793-6.317-14.11-14.11-14.11Z"
    />
    <path
      fill="#2A3E51"
      d="M27.67 0h-2.99v8.17h2.99V0ZM40.24 0h-2.99v8.17h2.99V0ZM52.21 0h-2.99v8.17h2.99V0ZM64.78 0h-2.99v8.17h2.99V0ZM76.66 0h-2.99v8.17h2.99V0ZM89.23 0h-2.99v8.17h2.99V0ZM101.2 0h-2.99v8.17h2.99V0ZM113.77 0h-2.99v8.17h2.99V0ZM125.79 0h-2.99v8.17h2.99V0ZM8.17 35.68v-2.99H0v2.99h8.17ZM8.17 48.25v-2.99H0v2.99h8.17ZM8.17 60.21v-2.99H0v2.99h8.17ZM8.16 72.79V69.8H-.01v2.99h8.17ZM8.16 84.67v-2.99H-.01v2.99h8.17ZM8.17 97.24v-2.99H0v2.99h8.17ZM8.17 109.2v-2.99H0v2.99h8.17ZM8.17 121.77v-2.99H0v2.99h8.17ZM8.17 133.8v-2.99H0v2.99h8.17ZM150.5 37.1v-2.99h-8.17v2.99h8.17ZM150.5 49.67v-2.99h-8.17v2.99h8.17ZM150.5 61.64v-2.99h-8.17v2.99h8.17ZM150.5 74.21v-2.99h-8.17v2.99h8.17ZM150.5 86.09V83.1h-8.17v2.99h8.17ZM150.5 98.66v-2.99h-8.17v2.99h8.17ZM150.5 110.62v-2.99h-8.17v2.99h8.17ZM150.5 123.19v-2.99h-8.17v2.99h8.17ZM150.5 135.22v-2.99h-8.17v2.99h8.17ZM124.23 166.49h2.99v-8.17h-2.99v8.17ZM111.66 166.49h2.99v-8.17h-2.99v8.17ZM99.69 166.49h2.99v-8.17h-2.99v8.17ZM87.11 166.49h2.99v-8.17h-2.99v8.17ZM75.23 166.49h2.99v-8.17h-2.99v8.17ZM62.66 166.49h2.99v-8.17h-2.99v8.17ZM50.7 166.49h2.99v-8.17H50.7v8.17ZM38.13 166.49h2.99v-8.17h-2.99v8.17ZM26.11 166.49h2.99v-8.17h-2.99v8.17Z"
    />
    <path
      fill="#000"
      fill-opacity=".78"
      d="M44.307 109h-9.318l20.937-58.182h10.142L87.006 109h-9.319L61.24 61.386h-.455L44.307 109Zm1.562-22.784h30.228v7.386H45.869v-7.386Zm58.317-35.398V109h-8.778V50.818h8.778Z"
    />
  </g>
  <defs>
    <clipPath id="a">
      <path fill="#fff" d="M0 0h150.5v166.48H0z" />
    </clipPath>
  </defs>
</svg>