
<svg
  xmlns="http://www.w3.org/2000/svg"
  width="203"
  height="208"
  fill="none"
>
  <g clip-path="url(#a)" opacity=".13">
    <path
      fill="#2A3E51"
      d="M125.14 8.17H25.36c-9.494 0-17.19 7.696-17.19 17.19v115.77c0 9.494 7.696 17.19 17.19 17.19h99.78c9.494 0 17.19-7.696 17.19-17.19V25.36c0-9.494-7.696-17.19-17.19-17.19Z"
    />
    <path
      fill="#fff"
      d="M116.2 21.63H34.3c-7.793 0-14.11 6.317-14.11 14.11v95.01c0 7.793 6.317 14.11 14.11 14.11h81.9c7.793 0 14.11-6.317 14.11-14.11V35.74c0-7.793-6.317-14.11-14.11-14.11Z"
    />
    <path
      fill="#2A3E51"
      d="M27.67 0h-2.99v8.17h2.99V0ZM40.24 0h-2.99v8.17h2.99V0ZM52.21 0h-2.99v8.17h2.99V0ZM64.78 0h-2.99v8.17h2.99V0ZM76.66 0h-2.99v8.17h2.99V0ZM89.23 0h-2.99v8.17h2.99V0ZM101.2 0h-2.99v8.17h2.99V0ZM113.77 0h-2.99v8.17h2.99V0ZM125.79 0h-2.99v8.17h2.99V0ZM8.17 35.68v-2.99H0v2.99h8.17ZM8.17 48.25v-2.99H0v2.99h8.17ZM8.17 60.21v-2.99H0v2.99h8.17ZM8.16 72.79V69.8H-.01v2.99h8.17ZM8.16 84.67v-2.99H-.01v2.99h8.17ZM8.17 97.24v-2.99H0v2.99h8.17ZM8.17 109.2v-2.99H0v2.99h8.17ZM8.17 121.77v-2.99H0v2.99h8.17ZM8.17 133.8v-2.99H0v2.99h8.17ZM150.5 37.1v-2.99h-8.17v2.99h8.17ZM150.5 49.67v-2.99h-8.17v2.99h8.17ZM150.5 61.64v-2.99h-8.17v2.99h8.17ZM150.5 74.21v-2.99h-8.17v2.99h8.17ZM150.5 86.09V83.1h-8.17v2.99h8.17ZM150.5 98.66v-2.99h-8.17v2.99h8.17ZM150.5 110.62v-2.99h-8.17v2.99h8.17ZM150.5 123.19v-2.99h-8.17v2.99h8.17ZM150.5 135.22v-2.99h-8.17v2.99h8.17ZM124.23 166.49h2.99v-8.17h-2.99v8.17ZM111.66 166.49h2.99v-8.17h-2.99v8.17ZM99.69 166.49h2.99v-8.17h-2.99v8.17ZM87.11 166.49h2.99v-8.17h-2.99v8.17ZM75.23 166.49h2.99v-8.17h-2.99v8.17ZM62.66 166.49h2.99v-8.17h-2.99v8.17ZM50.7 166.49h2.99v-8.17H50.7v8.17ZM38.13 166.49h2.99v-8.17h-2.99v8.17ZM26.11 166.49h2.99v-8.17h-2.99v8.17Z"
    />
    <path
      fill="#000"
      fill-opacity=".78"
      d="M44.307 109h-9.318l20.937-58.182h10.142L87.006 109h-9.319L61.24 61.386h-.455L44.307 109Zm1.562-22.784h30.228v7.386H45.869v-7.386Zm58.317-35.398V109h-8.778V50.818h8.778Z"
    />
  </g>
  <g clip-path="url(#b)" opacity=".07">
    <path
      fill="#000"
      d="M131.34 87.54c-3.1 4.49 1.37 9.34-2.16 14.25-2.48 3.46-7.73 5.26-11.95 4.32-6.26-1.4-6.56-8.01-11.66-8.64-5.78-.71-13.28 6.81-12.53 12.38.64 4.72 6.77 4.77 8.35 10.51 1.38 5.01-1.46 11.65-6.05 14.25-5.32 3.01-9.69-1.26-13.68 1.73-4.56 3.42-4.94 13.56-.72 17.13 3.69 3.13 8.25-1.02 13.82 2.16 4.65 2.65 7.78 9.14 6.48 14.11-1.52 5.83-8.14 5.82-8.93 10.8-.9 5.7 6.54 13.57 12.38 12.96 5.4-.56 5.7-7.97 12.24-9.36 4.91-1.04 11.07 1.8 13.53 6.19 2.98 5.31-1.28 9.58 1.58 13.53 3.59 4.95 15.19 5.07 18.72.29 2.91-3.94-1.67-8.49 1.44-13.97 2.35-4.13 8.05-6.98 12.53-5.9 5.3 1.27 5.28 7.16 9.94 8.06 5.83 1.13 14.23-6.5 13.68-12.53-.45-4.96-6.65-5.44-7.63-11.38-.75-4.52 1.9-9.95 5.9-12.24 4.89-2.79 8.64.92 12.38-1.73 4.76-3.36 5.39-14.04 1.01-17.85-3.89-3.39-9.12.92-14.25-2.88-3.35-2.48-5.16-7.32-4.61-11.38.86-6.3 6.95-7.12 7.06-12.1.12-5.38-6.85-11.64-12.67-11.23-5.15.36-5.91 5.71-11.52 6.19-4.6.4-9.85-2.71-11.81-6.91-2.36-5.08 1.56-8.61-.72-11.95-3.28-4.81-16.2-4.57-20.16 1.15l.01.04Z"
      opacity=".93"
    />
    <path
      fill="#fff"
      d="M142.09 167.08c12.007 0 21.74-9.733 21.74-21.74 0-12.007-9.733-21.74-21.74-21.74-12.007 0-21.74 9.733-21.74 21.74 0 12.007 9.733 21.74 21.74 21.74Z"
      opacity=".93"
    />
  </g>
  <defs>
    <clipPath id="a">
      <path fill="#fff" d="M0 0h150.5v166.48H0z" />
    </clipPath>
    <clipPath id="b">
      <path fill="#fff" d="M78 83h124.97v124.68H78z" />
    </clipPath>
  </defs>
</svg>