
<svg
  xmlns="http://www.w3.org/2000/svg"
  width="394"
  height="167"
  fill="none"
>
  <g clip-path="url(#a)" opacity=".13">
    <path
      fill="#2A3E51"
      d="M247.14 8.17h-99.78c-9.494 0-17.19 7.696-17.19 17.19v115.77c0 9.494 7.696 17.19 17.19 17.19h99.78c9.494 0 17.19-7.696 17.19-17.19V25.36c0-9.494-7.696-17.19-17.19-17.19Z"
    />
    <path
      fill="#fff"
      d="M238.2 21.63h-81.9c-7.793 0-14.11 6.317-14.11 14.11v95.01c0 7.793 6.317 14.11 14.11 14.11h81.9c7.793 0 14.11-6.317 14.11-14.11V35.74c0-7.793-6.317-14.11-14.11-14.11Z"
    />
    <path
      fill="#2A3E51"
      d="M149.67 0h-2.99v8.17h2.99V0ZM162.24 0h-2.99v8.17h2.99V0ZM174.21 0h-2.99v8.17h2.99V0ZM186.78 0h-2.99v8.17h2.99V0ZM198.66 0h-2.99v8.17h2.99V0ZM211.23 0h-2.99v8.17h2.99V0ZM223.2 0h-2.99v8.17h2.99V0ZM235.77 0h-2.99v8.17h2.99V0ZM247.79 0h-2.99v8.17h2.99V0ZM130.17 35.68v-2.99H122v2.99h8.17ZM130.17 48.25v-2.99H122v2.99h8.17ZM130.17 60.21v-2.99H122v2.99h8.17ZM130.16 72.79V69.8h-8.17v2.99h8.17ZM130.16 84.67v-2.99h-8.17v2.99h8.17ZM130.17 97.24v-2.99H122v2.99h8.17ZM130.17 109.2v-2.99H122v2.99h8.17ZM130.17 121.77v-2.99H122v2.99h8.17ZM130.17 133.8v-2.99H122v2.99h8.17ZM272.5 37.1v-2.99h-8.17v2.99h8.17ZM272.5 49.67v-2.99h-8.17v2.99h8.17ZM272.5 61.64v-2.99h-8.17v2.99h8.17ZM272.5 74.21v-2.99h-8.17v2.99h8.17ZM272.5 86.09V83.1h-8.17v2.99h8.17ZM272.5 98.66v-2.99h-8.17v2.99h8.17ZM272.5 110.62v-2.99h-8.17v2.99h8.17ZM272.5 123.19v-2.99h-8.17v2.99h8.17ZM272.5 135.22v-2.99h-8.17v2.99h8.17ZM246.23 166.49h2.99v-8.17h-2.99v8.17ZM233.66 166.49h2.99v-8.17h-2.99v8.17ZM221.69 166.49h2.99v-8.17h-2.99v8.17ZM209.11 166.49h2.99v-8.17h-2.99v8.17ZM197.23 166.49h2.99v-8.17h-2.99v8.17ZM184.66 166.49h2.99v-8.17h-2.99v8.17ZM172.7 166.49h2.99v-8.17h-2.99v8.17ZM160.13 166.49h2.99v-8.17h-2.99v8.17ZM148.11 166.49h2.99v-8.17h-2.99v8.17Z"
    />
    <path
      fill="#000"
      fill-opacity=".78"
      d="M166.307 109h-9.318l20.937-58.182h10.142L209.006 109h-9.318l-16.449-47.614h-.455L166.307 109Zm1.562-22.784h30.228v7.386h-30.228v-7.386Zm58.317-35.398V109h-8.778V50.818h8.778Z"
    />
  </g>
  <g fill="#2A3E51" fill-opacity=".60" clip-path="url(#b)" opacity=".1">
    <path d="M202.49 158.36c66.572 0 120.54-24.136 120.54-53.91 0-29.774-53.968-53.91-120.54-53.91S81.95 74.676 81.95 104.45c0 29.774 53.968 53.91 120.54 53.91Z" />
    <path d="M305.78 110.77c19.446 0 35.21-14.425 35.21-32.22 0-17.795-15.764-32.22-35.21-32.22s-35.21 14.425-35.21 32.22c0 17.795 15.764 32.22 35.21 32.22Z" />
    <path d="M216.69 86.66c36.34 0 65.8-18.056 65.8-40.33 0-22.274-29.46-40.33-65.8-40.33-36.34 0-65.8 18.056-65.8 40.33 0 22.274 29.46 40.33 65.8 40.33ZM282.48 161.53c61.569 0 111.48-13.579 111.48-30.33 0-16.751-49.911-30.33-111.48-30.33S171 114.449 171 131.2c0 16.751 49.911 30.33 111.48 30.33Z" />
    <path d="M111.48 129.31c61.569 0 111.48-13.579 111.48-30.33 0-16.75-49.911-30.33-111.48-30.33S0 82.23 0 98.98c0 16.751 49.911 30.33 111.48 30.33Z" />
    <path d="M160.9 161.53c61.569 0 111.48-13.579 111.48-30.33 0-16.751-49.911-30.33-111.48-30.33S49.42 114.449 49.42 131.2c0 16.751 49.911 30.33 111.48 30.33ZM129.66 90.76c19.446 0 35.21-14.425 35.21-32.22 0-17.795-15.764-32.22-35.21-32.22S94.45 40.745 94.45 58.54c0 17.795 15.764 32.22 35.21 32.22Z" />
  </g>
  <defs>
    <clipPath id="a">
      <path fill="#fff" d="M122 0h150.5v166.48H122z" />
    </clipPath>
    <clipPath id="b">
      <path fill="#fff" d="M0 6h393.96v155.53H0z" />
    </clipPath>
  </defs>
</svg>