
<svg
  xmlns="http://www.w3.org/2000/svg"
  width="245"
  height="197"
  fill="none"
>
  <g clip-path="url(#a)" opacity=".07">
    <path
      fill="#B3B3B3"
      d="m134.41 133.95 28.37-62.83 77.42-9.04-58.53 129.62-47.26-57.75Z"
    />
    <path
      fill="#000"
      d="m235.96 65.18-54.93 121.64-43.6-53.27 27.11-60.03 71.41-8.34m8.49-6.21-83.41 9.74-29.64 65.63 50.92 62.22 62.13-137.59Z"
    />
    <path
      fill="#B3B3B3"
      d="M40.776 2.526 2.53 87.23l118.327 53.427 38.246-84.706L40.776 2.526Z"
    />
    <path
      fill="#000"
      d="m41.73 5.05 114.85 51.86-36.68 81.23L5.05 86.28 41.73 5.05ZM39.82 0 0 88.18l121.81 55L161.63 55 39.82 0Z"
    />
    <path
      fill="#B3B3B3"
      d="m25.57 104.301-12.86 28.482 28.482 12.859 12.86-28.481-28.482-12.86Z"
    />
    <path
      fill="#000"
      d="m26.66 107.19 24.51 11.07-11.07 24.51-24.51-11.07 11.07-24.51Zm-2.18-5.77L9.83 133.88l32.46 14.65 14.65-32.46-32.46-14.65Z"
    />
    <path
      stroke="#000"
      stroke-miterlimit="10"
      stroke-width="5.18"
      d="M51.16 137.26c15.46 6.79 25.57 3.43 30.35-10.09"
    />
    <path
      fill="#B3B3B3"
      fill-rule="evenodd"
      d="M51.16 137.26c15.46 6.79 25.57 3.43 30.35-10.09Z"
      clip-rule="evenodd"
    />
  </g>
  <defs>
    <clipPath id="a">
      <path fill="#fff" d="M0 0h244.44v196.57H0z" />
    </clipPath>
  </defs>
</svg>