<?xml version="1.0" encoding="UTF-8"?>
<svg id="Layer_2" data-name="Layer 2" xmlns="http://www.w3.org/2000/svg" viewBox="0 0 236.17 177.41">
  <defs>
    <style>
      .cls-1, .cls-2 {
        opacity: .93;
        stroke-width: 0px;
      }

      .cls-3 {
        opacity: .07;
      }

      .cls-2 {
        fill: #fff;
      }
    </style>
  </defs>
  <g id="Layer_1-2" data-name="Layer 1">
    <g class="cls-3">
      <path class="cls-1" d="m75.9,6.47c-4.42,6.39,1.95,13.3-3.07,20.28-3.53,4.92-11,7.49-17.01,6.15-8.9-1.99-9.34-11.4-16.6-12.29-8.22-1.01-18.9,9.69-17.82,17.62.91,6.72,9.63,6.79,11.88,14.96,1.97,7.13-2.08,16.58-8.61,20.28-7.57,4.29-13.79-1.8-19.46,2.46-6.48,4.86-7.02,19.29-1.02,24.38,5.25,4.46,11.74-1.45,19.67,3.07,6.61,3.77,11.06,13,9.22,20.08-2.16,8.3-11.58,8.28-12.7,15.37-1.28,8.11,9.31,19.3,17.62,18.44,7.68-.8,8.11-11.34,17.42-13.32,6.99-1.49,15.75,2.56,19.26,8.81,4.24,7.55-1.83,13.63,2.25,19.26,5.1,7.04,21.61,7.21,26.63.41,4.14-5.6-2.38-12.08,2.05-19.87,3.34-5.88,11.45-9.93,17.82-8.4,7.55,1.81,7.51,10.19,14.14,11.47,8.3,1.6,20.25-9.24,19.46-17.82-.65-7.06-9.46-7.74-10.86-16.19-1.06-6.43,2.7-14.16,8.4-17.42,6.95-3.97,12.29,1.3,17.62-2.46,6.77-4.78,7.67-19.98,1.43-25.41-5.54-4.82-12.98,1.31-20.28-4.1-4.77-3.53-7.35-10.41-6.56-16.19,1.23-8.96,9.89-10.13,10.04-17.21.17-7.66-9.74-16.57-18.03-15.98-7.33.52-8.4,8.12-16.39,8.81-6.55.56-14.02-3.85-16.8-9.83-3.35-7.23,2.22-12.25-1.02-17.01-4.66-6.84-23.05-6.51-28.68,1.64Z"/>
      <circle class="cls-2" cx="91.19" cy="88.7" r="30.94"/>
    </g>
    <g class="cls-3">
      <path class="cls-1" d="m176.67,108.04c-.22,3.31,3.64,4.45,3.33,8.11-.22,2.58-2.39,5.16-4.88,5.99-3.7,1.23-5.93-2.13-8.78-.86-3.23,1.44-4.8,7.7-2.67,10.38,1.81,2.26,5.02.37,7.64,2.87,2.29,2.18,2.88,6.54,1.3,9.33-1.83,3.23-5.45,2.37-6.6,5.18-1.31,3.21,1.66,8.62,4.98,9.16,2.9.48,3.99-3.11,7.89-3.19,3.25-.07,6.91,2.34,7.79,5.34,1.03,3.52-2.43,5.58-1.28,8.42,1.31,3.26,7.65,5.03,10.51,2.89,2.64-1.98.48-5.94,3.46-8.71,2.24-2.08,6.34-2.52,9-1,3.21,1.84,2.32,5.4,5.06,6.57,3.42,1.46,9.51-2.1,9.86-5.7.29-2.96-3.53-3.91-3.61-7.74-.07-2.89,2.02-6.15,4.69-6.99,3.16-1,4.99,2.09,7.7,1.1,3.39-1.24,5.39-7.84,3.22-10.81-1.79-2.45-5.17-.76-7.54-3.55-1.8-2.12-2.12-5.79-.75-8.23,1.68-2.98,4.79-2.22,5.92-4.77,1.43-3.24-1.58-9.01-5.05-9.63-3.09-.55-4.47,3.33-8.34,2.95-2.52-.25-4.98-2.2-5.96-4.49-1.52-3.56,1.4-5.89-.1-8.51-1.62-2.84-7.21-3.93-10.12-1.9-2.58,1.8-1.3,4.82-4.07,6.83-2.28,1.65-5.99,1.67-8.32.08-2.82-1.91-1.88-4.98-4.11-6.01-3.21-1.49-9.88,2.68-10.16,6.9Z"/>
      <circle class="cls-2" cx="200.34" cy="134.83" r="13.22"/>
    </g>
  </g>
</svg>