<?xml version="1.0" encoding="UTF-8"?>
<svg id="Layer_2" data-name="Layer 2" xmlns="http://www.w3.org/2000/svg" viewBox="0 0 254.25 214.17">
  <defs>
    <style>
      .cls-1 {
        stroke-width: 0px;
      }

      .cls-2 {
        opacity: .08;
      }
    </style>
  </defs>
  <g id="Layer_1-2" data-name="Layer 1">
    <g class="cls-2">
      <rect class="cls-1" y="51.33" width="48.33" height="162.85"/>
      <g>
        <rect class="cls-1" x="80.13" y="93.06" width="48.33" height="121.11"/>
        <rect class="cls-1" x="144.68" y="130.54" width="48.33" height="83.64"/>
        <rect class="cls-1" x="205.74" y="90.93" width="48.33" height="121.75"/>
        <path class="cls-1" d="m12.3,22.32c16.48,5.6,32.97,11.21,49.45,16.81s32.02,10.36,47.52,16.78c7.41,3.07,14.51,6.67,21.36,10.85,6.82,4.16,13.5,8.6,20.75,12,6.87,3.22,14.21,5.56,21.77,6.35,8.29.87,16.31-.75,24.45-2.09,16.57-2.74,33.44-3.7,50.21-2.94,2.09.1,4.18.22,6.27.37.02,0,.11-10.33.11-11.16s.16-11.14-.11-11.16c-16.78-1.19-33.68-.67-50.34,1.64-8.2,1.13-16.37,3.24-24.68,3.31-7.74.07-15.41-1.67-22.6-4.46-7.34-2.85-14.08-6.89-20.75-11.03-6.82-4.23-13.66-8.31-20.98-11.63-15.12-6.85-31.14-11.72-46.83-17.05C51.43,13.3,34.94,7.7,18.46,2.09L12.3,0s-.08,3.77-.08,3.27c-.03,2.63-.03,5.26-.03,7.89s0,5.26.03,7.89c0,.37-.13,3.2.08,3.27h0Z"/>
      </g>
    </g>
  </g>
</svg>