<svg xmlns="http://www.w3.org/2000/svg" width="203" height="214" fill="none">
  <g clip-path="url(#a)">
    <path
      fill="#fff"
      stroke="#000"
      stroke-miterlimit="10"
      stroke-width="8.1"
      d="M97.39 208.18C36.61 148.14 2.12 89.67 4.14 33.38c12.98-10.28 26.22-8.01 38.62-14.24C80.22.34 114.82-.85 150.34 15.35c15.95 7.28 31.67 5.02 47.96 18.03 3.08 54.39-34.14 113.03-100.92 174.79l.01.01Z"
      opacity=".07"
    />
    <path
      fill="#000"
      d="m81.46 148.38 12.41-60.51h16.62l8.75 60.51H81.46Z"
      opacity=".07"
    />
    <path
      fill="#414042"
      d="M101.27 86.05c14.752 0 26.71-11.959 26.71-26.71 0-14.752-11.958-26.71-26.71-26.71-14.751 0-26.71 11.959-26.71 26.71 0 14.751 11.959 26.71 26.71 26.71Z"
      opacity=".07"
    />
  </g>
  <defs>
    <clipPath id="a">
      <path fill="#fff" d="M0 0h202.53v213.78H0z" />
    </clipPath>
  </defs>
</svg>