<svg
  xmlns="http://www.w3.org/2000/svg"
  width="185"
  height="189"
  fill="none"
>
  <g clip-path="url(#a)" opacity=".07">
    <path
      fill="#000"
      d="M129.07 67.65c0 22.21-16.5 40.21-36.86 40.21-7.63 0-13.46-2.65-15.8-3.87-13-6.77-21.35-21.67-21.05-36.33.39-18.85 15.14-40.21 36.86-40.21 20.35 0 36.86 18 36.86 40.21l-.01-.01Z"
    />
    <path
      stroke="#000"
      stroke-miterlimit="10"
      stroke-width="3.43"
      d="M69.83 97.51c-7.07 16.62-18.3 33.23-33.69 49.85"
    />
    <path
      stroke="#000"
      stroke-miterlimit="10"
      stroke-width="3.45"
      d="M117.15 97.51c7.15 16.62 18.51 33.23 34.08 49.85M1.72 46.44V1.79h45.37M2.36 140.18v46.56h47.37M137.12 185.44h44.71v-46.55M182.47 48.38V1.72h-46.63"
    />
  </g>
  <defs>
    <clipPath id="a">
      <path fill="#fff" d="M0 0h184.19v188.46H0z" />
    </clipPath>
  </defs>
</svg>